<?xml version="1.0" standalone="no"?>
<!DOCTYPE svg PUBLIC "-//W3C//DTD SVG 20010904//EN"
 "http://www.w3.org/TR/2001/REC-SVG-20010904/DTD/svg10.dtd">
<svg version="1.0" xmlns="http://www.w3.org/2000/svg"
 width="58.000000pt" height="64.000000pt" viewBox="0 0 58.000000 64.000000"
 preserveAspectRatio="xMidYMid meet">

<g transform="translate(0.000000,64.000000) scale(0.100000,-0.100000)"
fill="#000000" stroke="none">
<path d="M165 548 c-61 -31 -103 -77 -125 -135 -23 -62 -25 -115 -6 -158 13
-28 14 -27 9 27 -3 33 0 77 7 102 20 72 93 146 154 158 17 3 19 -5 20 -92 1
-52 -2 -101 -7 -107 -6 -8 -32 -13 -64 -13 -34 0 -52 -4 -48 -10 3 -5 31 -10
60 -10 l54 0 3 -112 c2 -78 7 -113 16 -116 9 -3 12 47 12 226 0 127 -3 237 -6
246 -8 21 -30 20 -79 -6z"/>
<path d="M300 325 c0 -157 4 -245 10 -245 6 0 10 83 10 229 0 136 4 232 10
236 18 11 76 -23 117 -69 49 -56 67 -115 61 -199 l-5 -62 14 45 c35 114 -31
245 -150 295 -71 29 -67 42 -67 -230z"/>
</g>
</svg>
